<mxfile host="app.diagrams.net" modified="2023-01-24T14:00:49.822Z" agent="5.0 (Windows NT 10.0; Win64; x64) AppleWebKit/537.36 (KHTML, like Gecko) Chrome/109.0.0.0 Safari/537.36" etag="HTKfJMFaiRJfLLdWm5ek" version="20.8.10" type="github">
  <diagram id="R2lEEEUBdFMjLlhIrx00" name="Page-1">
    <mxGraphModel dx="1234" dy="671" grid="1" gridSize="10" guides="1" tooltips="1" connect="1" arrows="1" fold="1" page="1" pageScale="1" pageWidth="850" pageHeight="1100" math="0" shadow="0" extFonts="Permanent Marker^https://fonts.googleapis.com/css?family=Permanent+Marker">
      <root>
        <mxCell id="0" />
        <mxCell id="1" parent="0" />
        <mxCell id="8em4bjQFtXF6PNWURz7g-1" value="Clients" style="swimlane;childLayout=stackLayout;horizontal=1;startSize=30;horizontalStack=0;rounded=1;fontSize=14;fontStyle=0;strokeWidth=2;resizeParent=0;resizeLast=1;shadow=0;dashed=0;align=center;" vertex="1" parent="1">
          <mxGeometry x="460" y="620" width="160" height="120" as="geometry" />
        </mxCell>
        <mxCell id="8em4bjQFtXF6PNWURz7g-2" value="name (string)&#xa;phone (number)&#xa;postal_code (number)&#xa;email (string)&#xa;date_register (dateTime)" style="align=left;strokeColor=none;fillColor=none;spacingLeft=4;fontSize=12;verticalAlign=top;resizable=0;rotatable=0;part=1;" vertex="1" parent="8em4bjQFtXF6PNWURz7g-1">
          <mxGeometry y="30" width="160" height="90" as="geometry" />
        </mxCell>
        <mxCell id="8em4bjQFtXF6PNWURz7g-3" value="Glasses" style="swimlane;childLayout=stackLayout;horizontal=1;startSize=30;horizontalStack=0;rounded=1;fontSize=14;fontStyle=0;strokeWidth=2;resizeParent=0;resizeLast=1;shadow=0;dashed=0;align=center;" vertex="1" parent="1">
          <mxGeometry x="130" y="610" width="160" height="140" as="geometry" />
        </mxCell>
        <mxCell id="8em4bjQFtXF6PNWURz7g-4" value="brand&#xa;glass_graduation&#xa;frame_type&#xa;frame_color&#xa;glass_color&#xa;unit_price" style="align=left;strokeColor=none;fillColor=none;spacingLeft=4;fontSize=12;verticalAlign=top;resizable=0;rotatable=0;part=1;" vertex="1" parent="8em4bjQFtXF6PNWURz7g-3">
          <mxGeometry y="30" width="160" height="110" as="geometry" />
        </mxCell>
        <mxCell id="8em4bjQFtXF6PNWURz7g-11" value="Provider" style="swimlane;childLayout=stackLayout;horizontal=1;startSize=30;horizontalStack=0;rounded=1;fontSize=14;fontStyle=0;strokeWidth=2;resizeParent=0;resizeLast=1;shadow=0;dashed=0;align=center;" vertex="1" parent="1">
          <mxGeometry x="140" y="20" width="160" height="220" as="geometry" />
        </mxCell>
        <mxCell id="8em4bjQFtXF6PNWURz7g-12" value="name (string)&#xa;street (string)&#xa;street_number (number)&#xa;floor (string)&#xa;door (string, number)&#xa;city (string)&#xa;cp (number)&#xa;country (string)&#xa;phone&#xa;fax&#xa;NIF" style="align=left;strokeColor=none;fillColor=none;spacingLeft=4;fontSize=12;verticalAlign=top;resizable=0;rotatable=0;part=1;" vertex="1" parent="8em4bjQFtXF6PNWURz7g-11">
          <mxGeometry y="30" width="160" height="190" as="geometry" />
        </mxCell>
        <mxCell id="8em4bjQFtXF6PNWURz7g-15" value="Store" style="whiteSpace=wrap;html=1;align=center;" vertex="1" parent="1">
          <mxGeometry x="170" y="410" width="100" height="40" as="geometry" />
        </mxCell>
        <mxCell id="8em4bjQFtXF6PNWURz7g-31" value="" style="fontSize=12;html=1;endArrow=ERmandOne;rounded=0;exitX=0.435;exitY=1.011;exitDx=0;exitDy=0;exitPerimeter=0;entryX=0.5;entryY=0;entryDx=0;entryDy=0;edgeStyle=entityRelationEdgeStyle;" edge="1" parent="1" source="8em4bjQFtXF6PNWURz7g-12" target="8em4bjQFtXF6PNWURz7g-15">
          <mxGeometry width="100" height="100" relative="1" as="geometry">
            <mxPoint x="470" y="440" as="sourcePoint" />
            <mxPoint x="570" y="340" as="targetPoint" />
          </mxGeometry>
        </mxCell>
        <mxCell id="8em4bjQFtXF6PNWURz7g-32" value="supply" style="edgeLabel;html=1;align=center;verticalAlign=middle;resizable=0;points=[];" vertex="1" connectable="0" parent="8em4bjQFtXF6PNWURz7g-31">
          <mxGeometry x="0.1425" y="1" relative="1" as="geometry">
            <mxPoint as="offset" />
          </mxGeometry>
        </mxCell>
        <mxCell id="8em4bjQFtXF6PNWURz7g-35" value="" style="edgeStyle=entityRelationEdgeStyle;fontSize=12;html=1;endArrow=ERoneToMany;rounded=0;exitX=0.5;exitY=1;exitDx=0;exitDy=0;entryX=0.55;entryY=0.015;entryDx=0;entryDy=0;entryPerimeter=0;" edge="1" parent="1" source="8em4bjQFtXF6PNWURz7g-15" target="8em4bjQFtXF6PNWURz7g-3">
          <mxGeometry width="100" height="100" relative="1" as="geometry">
            <mxPoint x="470" y="630" as="sourcePoint" />
            <mxPoint x="570" y="530" as="targetPoint" />
          </mxGeometry>
        </mxCell>
        <mxCell id="8em4bjQFtXF6PNWURz7g-36" value="sell" style="edgeLabel;html=1;align=center;verticalAlign=middle;resizable=0;points=[];" vertex="1" connectable="0" parent="8em4bjQFtXF6PNWURz7g-35">
          <mxGeometry x="-0.034" y="-1" relative="1" as="geometry">
            <mxPoint as="offset" />
          </mxGeometry>
        </mxCell>
        <mxCell id="8em4bjQFtXF6PNWURz7g-37" value="" style="edgeStyle=entityRelationEdgeStyle;fontSize=12;html=1;endArrow=ERmany;startArrow=ERmany;rounded=0;exitX=1;exitY=0.5;exitDx=0;exitDy=0;entryX=0;entryY=0.5;entryDx=0;entryDy=0;" edge="1" parent="1" source="8em4bjQFtXF6PNWURz7g-4" target="8em4bjQFtXF6PNWURz7g-2">
          <mxGeometry width="100" height="100" relative="1" as="geometry">
            <mxPoint x="470" y="720" as="sourcePoint" />
            <mxPoint x="570" y="620" as="targetPoint" />
          </mxGeometry>
        </mxCell>
        <mxCell id="8em4bjQFtXF6PNWURz7g-38" value="buyed by" style="edgeLabel;html=1;align=center;verticalAlign=middle;resizable=0;points=[];" vertex="1" connectable="0" parent="8em4bjQFtXF6PNWURz7g-37">
          <mxGeometry x="-0.0228" y="3" relative="1" as="geometry">
            <mxPoint as="offset" />
          </mxGeometry>
        </mxCell>
      </root>
    </mxGraphModel>
  </diagram>
</mxfile>
